<svg width="314" height="287" viewBox="0 0 314 287" fill="none" xmlns="http://www.w3.org/2000/svg">
<path fill-rule="evenodd" clip-rule="evenodd" d="M236.619 136.652C239.33 136.628 242.109 139.325 244.063 140.911C238.98 137.512 230.93 137.635 225.102 136.816C219.431 136.019 213.801 134.822 208.326 133.102C208.206 133.066 196.066 129.09 200.177 126.808C211.549 120.429 225.632 137.216 236.619 136.652ZM157.712 84.3287C159.849 89.5698 169.312 115.235 160.115 117.068C152.796 118.525 146.517 102.907 146.123 97.6873C145.474 88.9971 145.871 80.3256 144.659 71.647C149.754 75.5529 155.173 78.0371 157.712 84.3287ZM68.3351 243.059C64.8257 247.394 61.2787 251.725 57.4611 255.792C61.4713 250.822 65.2966 245.827 69.8055 241.293L68.3341 243.059L68.3351 243.059ZM304.173 42.9015C302.248 40.4193 294.728 43.4518 292.575 43.9387C286.67 45.2712 280.278 46.4558 274.88 44.1192C270.249 42.9554 277.745 34.9249 278.918 31.8529C279.741 29.6991 281.457 24.2388 280.031 22.0429C276.974 17.3387 270.576 22.8523 267.39 25.0252C262.724 28.2088 260.794 30.27 261.601 24.4267C262.47 18.1457 269.053 7.56631 262.393 2.00231C256.719 -2.73604 247.902 6.26137 244.475 9.87606C238.011 16.6828 235.011 24.3827 233.632 33.5476C233.31 35.6842 230.836 48.3194 228.664 46.0932C224.331 40.5245 227.761 32.3487 224.34 26.3478C222.394 22.9374 219.716 21.2468 218.081 17.4096C216.466 13.6213 214.835 6.82935 209.613 6.41806C206.298 6.15829 204.108 8.90088 203.561 11.6352C201.824 18.047 203.131 23.8201 203.019 30.3133C202.935 35.0646 199.812 38.6369 200.973 43.5255C202.844 50.9767 205.286 58.7911 206.549 66.5508C206.946 68.983 208.288 80.0557 203.525 77.8908C200.843 76.672 201.121 66.3109 200.938 64.49C200.501 60.1392 200.565 55.7972 197.946 52.0284C196.445 49.8679 193.955 49.0365 192.796 47.3406C189.373 42.3259 189.605 33.8257 186.778 28.3178C184.241 23.3757 177.52 11.395 171.619 10.2229C163.54 8.61733 166.579 19.6157 167.106 24.439C167.692 29.779 168.589 34.6495 168.115 39.8596C167.7 44.4592 168.029 48.1868 169.793 52.6549C173.05 60.91 177.958 68.0298 182.076 75.5507C182.068 75.5221 182.058 75.4941 182.046 75.4668C184.358 79.8817 186.282 85.3554 186.066 90.4603C185.704 99.0178 182.742 94.6606 180.142 88.8368C176.219 80.057 173.662 70.6685 169.786 61.8899C168.406 58.7628 166.75 55.5889 163.871 53.5503C161.939 52.1829 159.549 52.5147 158.05 51.6865C152.832 48.8129 133.622 16.2521 125.556 25.9581C121.2 31.1986 132.015 42.4017 134.295 46.3218C137.936 52.5828 141.8 56.9028 141.431 64.3341C139.314 62.3671 136.402 63.3924 134.466 61.8301C132.166 59.9712 131.521 56.0286 130.444 53.4504C127.483 46.3626 123.997 39.3834 119.364 33.2683C105.226 14.61 107.604 42.8164 109.004 52.1316C109.273 53.9185 109.587 56.2007 109.866 58.2353C110.588 63.5715 109.347 64.438 108.584 69.1549C107.287 77.1805 116.748 87.7682 121.637 93.5174C123.144 95.2934 146.394 124.103 136.201 123.862C131.062 123.74 122.397 109.128 119.998 104.642C116.31 97.744 113.777 83.962 106.119 80.3839C103.713 79.2602 101.726 80.4418 99.4973 79.5551C94.2897 77.4902 90.7564 69.3374 86.9899 65.5222C79.324 57.758 69.905 58.837 76.3183 71.4335C78.8577 76.4177 80.1172 79.744 81.6767 85.1688C83.4565 91.3572 89.0442 94.5459 91.6162 99.9673C93.741 104.448 90.4341 102.051 90.6256 107.384C90.7865 111.812 97.6548 116.657 100.887 119.12C105.377 122.542 125.617 134.008 121.649 140.926C118.032 147.232 106.233 137.724 103.078 134.832C95.1857 127.598 92.0382 117.833 87.5988 108.464C85.4353 103.897 82.959 98.3541 79.4181 94.6572C76.3132 91.4185 72.7799 90.975 68.9327 89.301C64.4529 87.3531 44.7077 76.9656 45.618 89.5187C46.2295 97.9527 57.9796 102.037 59.4484 110.087C54.163 107.733 43.1001 97.0265 36.8022 102.655C30.7227 108.089 42.7865 119.818 46.4611 124.252C48.7162 126.971 64.1553 139.206 63.8953 143.792C63.623 148.579 58.0825 146.865 54.8813 146.229C49.4062 145.145 0.379362 133.076 0.597336 143.068C0.763891 150.816 19.6161 148.194 22.0518 152.588C22.9474 154.202 20.9981 154.99 20.653 156.713C19.3907 163.029 21.4842 165.553 28.1171 166.245C21.818 181.342 42.6726 173.332 49.6835 170.924C54.4592 169.283 74.779 161.853 76.1856 172.048C76.6588 175.476 70.9196 180.876 69.9416 184.229C68.0569 190.698 72.8081 194.668 79.049 192.48C83.3432 190.977 87.2436 187.175 89.9985 183.652C91.5823 181.631 94.3801 174.978 97.0215 174.517C96.7583 185.468 103.146 179.806 108.972 175.1C113.33 171.581 124.186 162.012 130.663 165.818C125.591 172.856 118.662 178.461 113.122 185.107C107.059 192.388 100.749 199.187 93.7557 206.067C80.4934 219.114 67.2004 233.334 55.5317 247.755C49.8239 254.809 43.643 261.529 37.5247 268.227C35.316 270.642 21.4516 281.478 26.3102 285.88C32.8825 291.833 44.291 269.319 48.9824 266.714C71.2843 241.347 95.0519 217.263 116.669 191.409C115.779 194.326 116.754 202.551 121.163 202.41C120.124 204.807 117.007 208.46 117.731 211.205C119.337 217.275 121.794 211.806 124.072 212.162C127.963 212.772 124.768 219.788 124.048 222.648C120.687 235.974 120.056 250.535 119.19 264.243C118.716 271.765 125.039 292.585 135.718 283.674C141.05 279.227 141.601 268.093 141.94 261.86C142.156 257.927 140.36 247.01 143.088 243.608C147.605 245.995 153.025 256.735 155.925 260.581C162.054 268.716 167.418 273.887 178.069 274.583C203.374 276.236 172.729 247.495 175.783 245.57C177.932 244.217 192.748 256.715 194.708 258.208C199.051 261.516 212.282 269.587 217.139 262.818C221.213 257.138 210.793 247.631 207.701 243.973C205.107 240.905 203.171 236.706 199.925 233.617C197.254 231.075 193.677 229.628 191.032 227.208C188.282 224.692 188.122 221.07 185.056 218.192C181.616 214.957 176.938 212.256 173.151 209.311C166.821 204.392 157.865 197.996 157.123 189.068C171.583 190.863 181.458 206.605 191.33 215.753C196.268 220.328 202.082 226.198 209.233 224.64C212.105 224.013 209.03 223.454 212.875 223.188C213.738 223.129 214.907 223.634 215.743 223.829C221.737 225.241 227.479 227.426 233.423 228.99C237.11 229.961 248.939 234.277 252.244 230.73C258.237 224.296 232.361 208.132 227.787 204.548C224.326 201.839 220.163 199.522 216.897 196.709C213.899 194.128 212.891 190.684 208.859 188.784C203.639 186.323 197.57 185.478 192.128 183.631C184.808 181.145 178.714 177.5 172.621 172.815C170.097 170.875 163.972 166.7 165.296 163.188C167.427 157.548 177.035 164.755 179.757 166.299C187.818 170.876 195.361 178.168 205.329 181.177C215.64 184.292 220.936 194.424 230.43 198.96C233.86 200.598 235.791 200.754 239.407 200.087C243.43 199.35 245.337 198.883 250.064 200.085C254.348 201.176 275.019 207.891 273.446 198.249C272.937 195.121 268.403 193.831 266.105 192.553C261.042 189.733 256.125 186.624 250.994 183.929C247.736 182.218 243.595 181.037 240.928 178.383C238.398 175.865 237.833 173.304 234.194 171.665C229.295 169.456 221.929 169.813 217.638 166.826C213.545 163.981 210.31 159.892 205.624 157.264C201.895 155.176 180.765 147.354 181.343 143.861C182.515 136.762 206.311 150.33 208.144 151.326C219.823 157.672 231.277 166.136 243.266 172.113C247.296 174.121 250.423 173.374 254.136 173.919C259.067 174.643 264.219 178.03 269.227 179.203C273.218 180.138 283.657 182.58 281.62 175.63C280.15 170.607 270.6 166.278 266.607 163.238C262.092 159.804 257.888 156.086 252.998 153.181C251.947 152.555 249.629 151.764 248.858 150.9C246.727 148.503 248.138 144.852 245.575 142.155C248.266 144.741 250.92 146.083 254.572 146.119C255.525 146.131 257.361 145.109 258.558 144.96C262.169 144.509 266.422 145.719 270.038 146.129C275.118 146.699 300.716 145.97 287.53 136.996C281.894 133.161 275.556 130.253 269.28 127.68C264.348 125.658 257.89 124.174 253.734 120.779C249.427 117.259 248.637 115.442 242.376 114.511C235.942 113.556 226.864 113.745 221.805 109.103C211.501 99.6445 245.819 105.994 249.468 106.915C256.84 108.777 264.81 110.237 272.348 108.571C280.752 106.715 287.712 102.73 296.551 102.327C300.493 102.149 313.406 102.554 313.18 96.2209C312.959 89.9852 298.516 89.5708 294.684 88.8025C290.724 88.0095 286.225 87.7391 282.419 86.5796C278.966 85.5251 276.33 83.2974 272.965 81.9983C263.425 78.3108 255.319 83.0147 245.807 82.5731C240.785 82.3396 238.391 80.3643 243.64 76.7776C246.472 74.8385 251.021 74.6577 254.36 73.719C259.382 72.3086 264.326 70.51 269.284 68.8809C275.974 66.6795 313.541 54.8996 304.173 42.9015Z" fill="#89B99A"/>
</svg>
