<svg width="235" height="24" fill="none" xmlns="http://www.w3.org/2000/svg"><path fill-rule="evenodd" clip-rule="evenodd" d="M74.75 22.86c0 .5-.25.76-.76.76h-9a.75.75 0 0 1-.53-.19.7.7 0 0 1-.2-.54c0-.2.04-.36.13-.48.1-.12.24-.22.44-.3l.7-.2a.73.73 0 0 0 .4-.32c.1-.16.15-.38.15-.66v-9.56a.64.64 0 0 0-.11-.39 1 1 0 0 0-.43-.29l-.94-.31a1.52 1.52 0 0 1-.54-.39.79.79 0 0 1-.16-.5c0-.2.06-.36.2-.49l.05-.04c.13-.1.3-.15.51-.15h1.43v-.1c-.04-.19-.12-.38-.24-.55l-.55-.8a4.19 4.19 0 0 1-.8-2.6c0-1.44.49-2.6 1.47-3.46.97-.87 2.37-1.3 4.17-1.3 1.16 0 2.13.19 2.9.56a3.84 3.84 0 0 1 2.29 3.54c0 .87-.23 1.52-.68 1.96a2.4 2.4 0 0 1-1.74.65c-.78 0-1.41-.25-1.9-.76a2.82 2.82 0 0 1-.7-2.02V2.46c0-.38-.08-.67-.24-.85-.15-.18-.38-.27-.7-.27-.4 0-.7.14-.91.41-.2.28-.3.67-.3 1.2-.01.52.11 1.02.36 1.48.24.46.54.9.9 1.3s.72.79 1.08 1.15c.36.37.66.74.9 1.1l.07.1a2 2 0 0 1 .27.64l.01.09h2.41c.25 0 .45.05.58.16.14.1.2.26.2.48 0 .34-.13.6-.42.81-.28.21-.72.32-1.33.32h-1.16v10.3c0 .3.05.54.14.7.09.17.24.27.45.3l1.4.22a.9.9 0 0 1 .55.24c.12.13.18.3.18.52Zm-32.1.38c-.97.47-2.1.71-3.41.71-1.38 0-2.62-.3-3.71-.88a6.4 6.4 0 0 1-2.58-2.53A8.05 8.05 0 0 1 32 16.5c0-1.54.33-2.9.99-4.11a7.38 7.38 0 0 1 2.74-2.86 7.87 7.87 0 0 1 4.11-1.05c1.34 0 2.46.2 3.38.6.92.4 1.62.93 2.1 1.6.49.68.73 1.44.73 2.28a2.8 2.8 0 0 1-.76 2.07c-.5.5-1.2.76-2.06.76-.9 0-1.57-.26-2.03-.77a3.03 3.03 0 0 1-.7-2.11v-1.06c0-.54-.09-.95-.29-1.22a.96.96 0 0 0-.83-.42c-.36 0-.68.15-.97.44-.28.3-.5.73-.66 1.32-.16.58-.24 1.3-.24 2.16 0 1.24.18 2.27.55 3.11a3.8 3.8 0 0 0 3.64 2.51c.8 0 1.48-.12 2.02-.35.54-.24.96-.64 1.25-1.2.17-.16.3-.26.39-.3.09-.04.18-.07.27-.07.1.02.2.07.26.16.08.1.1.24.1.44a5.7 5.7 0 0 1-3.33 4.81Zm16.58-.33a8.7 8.7 0 0 1-4.27 1 8.46 8.46 0 0 1-4.14-.98 7.07 7.07 0 0 1-2.78-2.72c-.66-1.15-1-2.5-1-4.01a7.5 7.5 0 0 1 3.93-6.7 8.57 8.57 0 0 1 4.24-1.02c1.59 0 2.97.33 4.16 1a7.1 7.1 0 0 1 2.77 2.73c.66 1.17.99 2.52.99 4.05 0 1.46-.34 2.76-1.03 3.91a7.47 7.47 0 0 1-2.87 2.74Zm-3.03-.71c-.33.06-.66-.08-.98-.45a5.5 5.5 0 0 1-.92-1.83c-.28-.86-.56-2-.82-3.4-.25-1.39-.39-2.54-.42-3.45-.03-.9.03-1.58.2-2.05.16-.46.4-.73.74-.8.34-.07.67.08.99.44.32.36.63.98.92 1.84.3.86.57 1.98.83 3.38s.4 2.56.43 3.47c.03.9-.04 1.6-.2 2.05-.18.47-.43.73-.77.8Zm29.16 1.42c.51 0 .77-.25.77-.76 0-.22-.06-.4-.18-.52a.9.9 0 0 0-.56-.24l-1.4-.22a.59.59 0 0 1-.45-.3c-.09-.16-.13-.4-.13-.7v-10.3h1.15c.61 0 1.06-.1 1.34-.32.28-.2.42-.47.42-.8 0-.23-.06-.39-.2-.5a.93.93 0 0 0-.58-.15h-2.41l-.02-.09a2 2 0 0 0-.26-.64l-.07-.1a8.28 8.28 0 0 0-.9-1.1c-.36-.36-.72-.75-1.08-1.15-.36-.4-.66-.84-.9-1.3a3.14 3.14 0 0 1-.37-1.49c0-.52.1-.91.3-1.19.21-.27.52-.41.92-.41.31 0 .55.09.7.27.15.18.23.47.23.85v1.47c0 .84.24 1.51.72 2.02.47.5 1.1.76 1.89.76.7 0 1.28-.22 1.73-.65.45-.44.68-1.09.68-1.96A3.84 3.84 0 0 0 84.4.56 6.57 6.57 0 0 0 81.53 0c-1.8 0-3.2.43-4.18 1.3a4.4 4.4 0 0 0-1.46 3.46 4.18 4.18 0 0 0 .8 2.6l.55.8c.12.17.2.36.23.55v.1h-1.42c-.21 0-.38.05-.51.15l-.05.04a.64.64 0 0 0-.2.49c0 .2.05.36.16.5.1.14.28.27.53.39l.95.31a1 1 0 0 1 .42.3c.08.1.12.23.12.38v9.56c0 .28-.05.5-.15.66a.73.73 0 0 1-.4.31l-.7.22a.98.98 0 0 0-.44.3.77.77 0 0 0-.14.47c0 .23.07.41.2.54.14.13.32.19.53.19h9Zm12.76-.48a7.9 7.9 0 0 1-3.65.81 8.19 8.19 0 0 1-4-.95 6.82 6.82 0 0 1-2.7-2.66 7.89 7.89 0 0 1-.97-3.96c0-1.58.3-2.96.93-4.14a6.68 6.68 0 0 1 2.72-2.77c1.18-.66 2.6-1 4.27-1 1.41 0 2.63.29 3.65.84a5.9 5.9 0 0 1 2.35 2.27c.55.95.83 2.01.83 3.18 0 .5-.14.9-.41 1.2l-.07.06c-.26.25-.63.38-1.1.38H92.5l.02.07c.2.91.54 1.64 1.01 2.18.82.93 1.9 1.4 3.26 1.4.87 0 1.64-.2 2.31-.6.67-.4 1.12-.94 1.34-1.65.13-.14.25-.24.36-.29.1-.05.19-.07.26-.07.11 0 .2.04.28.13.08.09.12.24.12.45 0 1.08-.3 2.07-.89 2.96a6.3 6.3 0 0 1-2.46 2.16Zm-5.78-8.07a12.89 12.89 0 0 1 .21-3.24c.15-.59.35-1.01.59-1.26s.5-.37.8-.37c.38 0 .73.32 1.06.97.33.65.5 1.73.5 3.24 0 .47-.2.7-.62.7h-2.53v-.04Zm21.36 8.07a7.9 7.9 0 0 1-3.65.81 8.18 8.18 0 0 1-4-.95 6.82 6.82 0 0 1-2.7-2.66 7.9 7.9 0 0 1-.97-3.96c0-1.58.31-2.96.94-4.14a6.68 6.68 0 0 1 2.7-2.77c1.2-.66 2.62-1 4.28-1 1.41 0 2.63.29 3.65.84a5.92 5.92 0 0 1 2.36 2.27c.54.95.82 2.01.82 3.18 0 .5-.14.9-.4 1.2l-.07.06c-.27.25-.64.38-1.11.38h-7.45l.01.07c.2.91.54 1.64 1.02 2.18.81.93 1.9 1.4 3.26 1.4.86 0 1.63-.2 2.3-.6.67-.4 1.12-.94 1.35-1.65.13-.14.24-.24.35-.29.1-.05.19-.07.27-.07.1 0 .2.04.27.13.08.09.12.24.12.45 0 1.08-.3 2.07-.88 2.96-.59.9-1.41 1.62-2.47 2.16Zm-5.77-8.07a13.39 13.39 0 0 1 .2-3.24c.15-.59.35-1.01.59-1.26s.5-.37.8-.37c.38 0 .73.32 1.06.97.34.65.5 1.73.5 3.24 0 .47-.2.7-.62.7h-2.53v-.04Zm19.67 8.34c-.14.14-.33.21-.6.21h-8.14a.77.77 0 0 1-.57-.2.73.73 0 0 1-.2-.54c0-.18.04-.33.12-.44.08-.12.2-.23.34-.32l.37-.15a.55.55 0 0 0 .3-.32c.05-.14.08-.38.08-.7v-8.4c0-.27-.03-.46-.1-.57a.62.62 0 0 0-.3-.28l-.42-.05a1.04 1.04 0 0 1-.33-.28.64.64 0 0 1-.1-.38c0-.17.05-.33.15-.47.11-.14.3-.26.56-.35l4.63-1.34c.27-.11.5-.2.68-.23.19-.05.34-.07.47-.07.19 0 .33.07.42.2l.03.05c.08.13.13.35.16.66l.12 2.57.03-.1c.05-.18.12-.35.18-.51.4-.99.92-1.72 1.57-2.2a3.53 3.53 0 0 1 2.14-.72c.93 0 1.65.31 2.15.94.5.63.75 1.58.75 2.86 0 1.27-.26 2.2-.78 2.8-.52.59-1.2.89-2.02.89-.8 0-1.4-.2-1.79-.61-.38-.41-.59-1-.6-1.74l-.03-.66a1.25 1.25 0 0 0-.14-.6c-.09-.14-.23-.21-.43-.21-.2 0-.36.1-.5.3-.16.2-.27.52-.34.94-.08.42-.12.95-.12 1.6v5.82c0 .3.05.55.15.74.1.18.25.29.46.33l1.22.25c.23.04.39.12.49.26.1.14.14.3.14.49 0 .22-.06.4-.2.53Zm13.03.5a8.7 8.7 0 0 0 4.26-1 7.47 7.47 0 0 0 2.87-2.74 7.46 7.46 0 0 0 1.04-3.9c0-1.54-.34-2.89-1-4.06a7.1 7.1 0 0 0-2.77-2.74 8.39 8.39 0 0 0-4.16-1c-1.6 0-3 .35-4.23 1.03a7.5 7.5 0 0 0-3.93 6.7c0 1.52.33 2.86 1 4.01a7.07 7.07 0 0 0 2.77 2.72c1.2.66 2.58.99 4.15.99Zm.25-2.16c.32.37.65.51.99.45.34-.07.59-.33.76-.8.17-.46.24-1.14.2-2.05-.02-.91-.16-2.07-.42-3.47-.26-1.4-.54-2.52-.83-3.38-.3-.86-.6-1.48-.93-1.84-.31-.36-.64-.51-.98-.45-.34.08-.59.35-.75.81a5.87 5.87 0 0 0-.2 2.05c.04.9.18 2.06.43 3.46.26 1.4.53 2.53.82 3.39.29.86.6 1.47.91 1.83Zm20.84 2.2c.91 0 1.66-.17 2.25-.5a3.6 3.6 0 0 0 1.31-1.2c.29-.46.43-.89.43-1.27 0-.17-.03-.3-.1-.42a.32.32 0 0 0-.29-.16c-.05 0-.1 0-.14.03a.33.33 0 0 0-.12.1c-.05.2-.14.33-.25.41a.64.64 0 0 1-.37.12c-.18 0-.32-.07-.41-.2a.84.84 0 0 1-.14-.5v-7.3c0-1.46-.5-2.58-1.48-3.38-.98-.8-2.52-1.2-4.62-1.2-1.63 0-2.99.2-4.08.61-1.1.4-1.91.93-2.46 1.56a2.96 2.96 0 0 0-.82 1.95c0 .7.2 1.24.6 1.6.41.38 1 .56 1.78.56.94 0 1.69-.26 2.23-.77s.81-1.17.81-1.99v-1.26c0-.3.1-.54.29-.72.19-.17.43-.25.7-.25.31 0 .55.11.73.34.18.22.27.53.27.91v4.82l-.09-.02a5.46 5.46 0 0 0-.9-.08h-.18c-2.34 0-4.08.4-5.22 1.19a3.82 3.82 0 0 0-1.72 3.32c0 1.08.39 1.96 1.18 2.66.78.7 1.83 1.04 3.13 1.04.98 0 1.9-.2 2.74-.6.64-.3 1.16-.7 1.55-1.2l.02-.02.03.07c.12.36.35.68.69.96l.1.09c.6.47 1.45.7 2.55.7Zm-5.61-3.12c.26.36.61.54 1.05.54h.1c.18-.01.36-.07.53-.16l.05-.03v-4.24l-.08-.02c-.18-.05-.4-.08-.65-.08-.43 0-.77.2-1.02.6-.25.4-.38.98-.38 1.75 0 .74.13 1.29.4 1.64ZM173.2 24c1.94 0 3.42-.45 4.45-1.34a4.58 4.58 0 0 0 1.55-3.65 5.5 5.5 0 0 0-.52-2.46 4.78 4.78 0 0 0-1.83-1.88c-.87-.55-2.09-1.06-3.67-1.55a6.67 6.67 0 0 1-1.36-.57c-.32-.19-.54-.4-.66-.62a1.47 1.47 0 0 1-.17-.7c0-.38.13-.68.4-.92.27-.23.68-.34 1.2-.34.75 0 1.45.24 2.1.74.66.5 1.39 1.35 2.18 2.55.2.25.41.43.62.55.2.12.4.15.59.1a.58.58 0 0 0 .42-.45c.05-.23.04-.57-.03-1.01l-.43-3.05a1.28 1.28 0 0 0-.24-.67.6.6 0 0 0-.47-.2c-.18 0-.4.06-.66.18l-.77.37c-.26.13-.45.2-.58.2-.12 0-.3-.07-.53-.2a5.24 5.24 0 0 0-2.63-.6c-1.12 0-2.13.2-3.02.61a4.67 4.67 0 0 0-2.9 4.45c0 .92.2 1.73.58 2.43.39.7.98 1.29 1.77 1.78.8.5 1.8.9 3 1.2.78.22 1.38.43 1.8.64.42.22.7.45.86.7.16.26.24.54.24.85 0 .4-.14.74-.4 1-.28.27-.7.4-1.25.4-.52 0-1.02-.1-1.49-.33a4.9 4.9 0 0 1-1.46-1.17c-.5-.55-1.06-1.3-1.68-2.26-.18-.26-.39-.43-.62-.53a.84.84 0 0 0-.71.01c-.23.1-.38.28-.44.57-.07.28-.05.64.05 1.05l.5 3.3c.08.32.19.54.33.65.14.11.3.17.45.17.19 0 .41-.06.68-.18l.8-.37c.27-.12.48-.18.64-.18.17 0 .38.06.65.18a6.08 6.08 0 0 0 2.66.55Zm15.45-.62c-.71.38-1.56.57-2.54.57-1.65 0-2.9-.4-3.72-1.2-.84-.81-1.25-2.08-1.25-3.8v-7.48c0-.23-.02-.4-.07-.53-.04-.12-.15-.22-.32-.3l-.77-.24c-.18-.1-.3-.2-.36-.33a1.2 1.2 0 0 1-.08-.47c0-.23.08-.42.25-.57a.86.86 0 0 1 .6-.22h.8c.1 0 .2-.04.3-.12.12-.07.26-.23.45-.46l3.01-2.53c.22-.26.44-.46.66-.6.21-.14.43-.2.65-.2.25 0 .44.07.58.22l.05.06c.11.15.17.38.17.67v2.96h3.4c.24 0 .43.05.56.16.13.1.2.26.2.48a1 1 0 0 1-.42.8l-.06.04a2.2 2.2 0 0 1-1.24.29h-2.44v7.54c0 .82.13 1.43.41 1.83.28.4.68.6 1.22.6.22 0 .44-.05.63-.15.2-.1.37-.23.53-.4.16-.15.3-.33.45-.53.14-.2.28-.4.4-.6.11-.04.21-.02.3.06.07.09.1.25.1.5-.08.9-.33 1.69-.74 2.36-.42.68-.99 1.21-1.7 1.59Zm10.68.57a7.9 7.9 0 0 0 3.65-.8 6.3 6.3 0 0 0 2.46-2.17c.59-.9.88-1.88.88-2.96 0-.21-.04-.36-.11-.45a.36.36 0 0 0-.28-.13.64.64 0 0 0-.27.07c-.1.05-.22.15-.35.3-.23.7-.68 1.25-1.34 1.64-.67.4-1.44.6-2.31.6a4.12 4.12 0 0 1-3.26-1.4 4.8 4.8 0 0 1-1.01-2.18l-.02-.07h7.45c.47 0 .84-.13 1.11-.38l.06-.06c.28-.3.41-.7.41-1.2 0-1.17-.27-2.23-.82-3.18a5.92 5.92 0 0 0-2.36-2.27 7.52 7.52 0 0 0-3.65-.83c-1.66 0-3.08.33-4.27 1a6.68 6.68 0 0 0-2.71 2.76 8.75 8.75 0 0 0-.94 4.14c0 1.5.33 2.82.97 3.96a6.82 6.82 0 0 0 2.7 2.66c1.15.63 2.49.95 4 .95Zm-2.15-9.67c0 .27 0 .54.02.8v.03h2.54c.4 0 .62-.23.62-.7 0-1.5-.17-2.59-.5-3.24-.33-.65-.69-.97-1.07-.97-.3 0-.56.12-.8.37s-.43.67-.59 1.26c-.15.6-.22 1.42-.22 2.45Zm19.1 9.34c.26 0 .46-.07.6-.2.13-.14.2-.32.2-.54a.82.82 0 0 0-.15-.5c-.1-.13-.26-.21-.49-.25l-1.22-.25a.65.65 0 0 1-.46-.33c-.1-.19-.14-.43-.14-.74v-5.82c0-.65.03-1.18.11-1.6.08-.42.19-.73.33-.94.15-.2.32-.3.52-.3s.34.07.42.21c.09.15.14.35.15.6l.02.66c.02.75.22 1.33.6 1.74.4.4.99.6 1.8.6.82 0 1.49-.3 2.01-.89.52-.6.78-1.52.78-2.79 0-1.28-.25-2.23-.75-2.86a2.59 2.59 0 0 0-2.15-.94c-.77 0-1.48.24-2.13.72a4.92 4.92 0 0 0-1.58 2.2l-.18.51-.03.1-.12-2.57c-.03-.3-.08-.53-.16-.66l-.03-.05c-.09-.13-.23-.2-.41-.2-.13 0-.29.02-.48.07-.18.04-.4.12-.68.23l-4.63 1.34c-.26.1-.44.21-.55.35-.11.14-.17.3-.17.47 0 .16.04.28.11.38.07.1.18.2.33.28l.43.05c.14.07.24.16.3.28.06.11.09.3.09.57v8.4c0 .32-.03.56-.08.7a.55.55 0 0 1-.3.32l-.37.15c-.14.1-.25.2-.33.32a.74.74 0 0 0-.13.44c0 .23.07.4.2.54.14.13.33.2.57.2h8.15Zm17.16-.96c-1.03.9-2.51 1.34-4.45 1.34a6.09 6.09 0 0 1-2.66-.55 1.66 1.66 0 0 0-.65-.18c-.16 0-.37.06-.64.18l-.8.37c-.26.12-.5.18-.68.18a.73.73 0 0 1-.45-.17c-.14-.1-.25-.33-.33-.66l-.5-3.29a2.4 2.4 0 0 1-.05-1.05c.06-.29.21-.48.44-.57a.84.84 0 0 1 .7-.01c.24.1.45.27.63.53.62.96 1.18 1.71 1.68 2.26.5.55.99.94 1.46 1.17.47.22.97.34 1.5.34.55 0 .96-.14 1.23-.4.27-.27.41-.6.41-1 0-.32-.08-.6-.24-.85a2.13 2.13 0 0 0-.86-.7 9.5 9.5 0 0 0-1.8-.64c-1.2-.31-2.2-.71-3-1.2-.8-.5-1.38-1.1-1.77-1.8-.38-.69-.58-1.5-.58-2.42a4.67 4.67 0 0 1 2.9-4.45c.9-.4 1.9-.61 3.02-.61a5.65 5.65 0 0 1 2.63.6c.23.13.41.2.53.2.13 0 .32-.07.58-.2l.77-.37c.26-.12.48-.18.66-.18.2 0 .35.07.47.2s.2.36.24.67l.43 3.05c.07.44.08.78.03 1.01a.57.57 0 0 1-.43.46.8.8 0 0 1-.58-.11c-.2-.12-.41-.3-.62-.55-.8-1.2-1.52-2.05-2.18-2.55a3.42 3.42 0 0 0-2.1-.74c-.52 0-.92.11-1.2.34-.27.24-.4.54-.4.91 0 .26.06.5.18.71.11.22.33.43.66.62.31.2.77.39 1.36.57 1.57.49 2.8 1 3.66 1.55a4.77 4.77 0 0 1 1.83 1.88c.35.7.52 1.52.52 2.46 0 1.54-.52 2.76-1.55 3.65Z" fill="#555"/><path fill-rule="evenodd" clip-rule="evenodd" d="M13.49 3C9.97-.5 4.77-1 1.88 1.88-1.02 4.77-.51 9.98 3 13.49a10.6 10.6 0 0 0 3.15 2.17 11.6 11.6 0 0 1 3.07-5.97c-.54-.2-1.09-.36-1.66-.52-3.41-.93-5.1-3.78-5.5-7.11.32.39.62.8.92 1.22.58.8 1.15 1.59 1.93 2.23 1.2 1 2.54 1.38 3.99 1.8l.17.05c.69.2 1.28.5 1.83.84a11.35 11.35 0 0 1 4.75-2.05A10.57 10.57 0 0 0 13.5 3ZM7.55 16.5c.22-2.17 1.27-4.3 2.96-5.99 3.51-3.5 8.72-4.02 11.61-1.12 2.9 2.89 2.39 8.1-1.12 11.61A10.03 10.03 0 0 1 14.15 24a6.61 6.61 0 0 1-4.76-1.89 6.77 6.77 0 0 1-1.84-5.62Zm5.14 1.78c1.15-.88 2.4-1.22 3.75-1.6 3.41-.93 5.1-3.78 5.5-7.11-.32.39-.62.8-.91 1.2-.58.81-1.16 1.6-1.94 2.25-1.21 1-2.54 1.38-4 1.8l-.16.05c-3.34.97-4.99 3.8-5.37 7.08.33-.4.63-.8.93-1.22a11.4 11.4 0 0 1 2.2-2.45Z" fill="#0A775F"/></svg>